<?xml version="1.0" encoding="utf-8"?>
<!-- Generator: Adobe Illustrator 21.1.0, SVG Export Plug-In . SVG Version: 6.00 Build 0)  -->
<svg version="1.1" id="Layer_1" xmlns="http://www.w3.org/2000/svg" xmlns:xlink="http://www.w3.org/1999/xlink" x="0px" y="0px"
	 viewBox="0 0 30 30" style="enable-background:new 0 0 30 30;" xml:space="preserve">
<style type="text/css">
	.st0{fill:#FFFFFF;}
</style>
<circle cx="26" cy="24" r="2"/>
<path d="M17,5c0,1.1-0.9,1-2,1s-2,0.1-2-1s0.9-2,2-2S17,3.9,17,5z"/>
<circle cx="4" cy="24" r="2"/>
<path class="st0" d="M16.8,4.2L15,4l-1.8,0.2L2.3,22.9L4.1,26H15h10.9l1.8-3.1L16.8,4.2z M16.2,11.4L16,17.8h-2l-0.2-6.5
	C13.8,11.4,16.2,11.4,16.2,11.4z M15,22.2c-0.8,0-1.3-0.4-1.3-1.2c0-0.8,0.5-1.2,1.3-1.2c0.8,0,1.3,0.4,1.3,1.2
	C16.3,21.7,15.8,22.2,15,22.2z"/>
</svg>
